<svg xmlns="http://www.w3.org/2000/svg" width="760" height="520" viewBox="0 0 760 520">
  <rect width="100%" height="100%" fill="white"/>
  <style>
    text{font-family:Arial,Helvetica,sans-serif;fill:#111}
    .axis{stroke:#333;stroke-width:1}
    .grid{stroke:#ddd;stroke-width:1}
    .line{fill:none;stroke:#111;stroke-width:3}
    .eq{fill:none;stroke:#777;stroke-width:2;stroke-dasharray:7 6}
    .pt{fill:#111}
    .err{stroke:#555;stroke-width:2}
  </style>
  <text x="380" y="32" text-anchor="middle" font-size="20" font-weight="700">Wealth gradient in anaemia prevalence</text>
  <line class="axis" x1="80" y1="440" x2="730" y2="440"/>
<line class="axis" x1="80" y1="65" x2="80" y2="440"/><line class="grid" x1="80" y1="440" x2="730" y2="440"/>
 <text x="70" y="444" text-anchor="end" font-size="12">30%</text><line class="grid" x1="80" y1="365" x2="730" y2="365"/>
 <text x="70" y="369" text-anchor="end" font-size="12">35%</text><line class="grid" x1="80" y1="290" x2="730" y2="290"/>
 <text x="70" y="294" text-anchor="end" font-size="12">40%</text><line class="grid" x1="80" y1="215" x2="730" y2="215"/>
 <text x="70" y="219" text-anchor="end" font-size="12">45%</text><line class="grid" x1="80" y1="140" x2="730" y2="140"/>
 <text x="70" y="144" text-anchor="end" font-size="12">50%</text><line class="grid" x1="80" y1="65" x2="730" y2="65"/>
 <text x="70" y="69" text-anchor="end" font-size="12">55%</text><line class="err" x1="145" y1="237.5" x2="145" y2="144.49999999999994"/>
 <line class="err" x1="139" y1="237.5" x2="151" y2="237.5"/>
 <line class="err" x1="139" y1="144.49999999999994" x2="151" y2="144.49999999999994"/>
 <circle class="pt" cx="145" cy="191" r="5"/>
 <text x="145" y="468" text-anchor="middle" font-size="12">Poorest</text><line class="err" x1="275" y1="310.85" x2="275" y2="215.45000000000002"/>
 <line class="err" x1="269" y1="310.85" x2="281" y2="310.85"/>
 <line class="err" x1="269" y1="215.45000000000002" x2="281" y2="215.45000000000002"/>
 <circle class="pt" cx="275" cy="263.15" r="5"/>
 <text x="275" y="468" text-anchor="middle" font-size="12">Poorer</text><line class="err" x1="405" y1="333.04999999999995" x2="405" y2="221.59999999999997"/>
 <line class="err" x1="399" y1="333.04999999999995" x2="411" y2="333.04999999999995"/>
 <line class="err" x1="399" y1="221.59999999999997" x2="411" y2="221.59999999999997"/>
 <circle class="pt" cx="405" cy="277.25" r="5"/>
 <text x="405" y="468" text-anchor="middle" font-size="12">Middle</text><line class="err" x1="535" y1="348.6499999999999" x2="535" y2="252.64999999999998"/>
 <line class="err" x1="529" y1="348.6499999999999" x2="541" y2="348.6499999999999"/>
 <line class="err" x1="529" y1="252.64999999999998" x2="541" y2="252.64999999999998"/>
 <circle class="pt" cx="535" cy="300.65000000000003" r="5"/>
 <text x="535" y="468" text-anchor="middle" font-size="12">Richer</text><line class="err" x1="665" y1="361.55000000000007" x2="665" y2="253.09999999999997"/>
 <line class="err" x1="659" y1="361.55000000000007" x2="671" y2="361.55000000000007"/>
 <line class="err" x1="659" y1="253.09999999999997" x2="671" y2="253.09999999999997"/>
 <circle class="pt" cx="665" cy="307.4" r="5"/>
 <text x="665" y="468" text-anchor="middle" font-size="12">Richest</text><text x="405" y="502" text-anchor="middle" font-size="14">Household wealth quintile</text>
<text transform="translate(22 252.5) rotate(-90)" text-anchor="middle" font-size="14">Anaemia prevalence</text>
  </svg>